<?xml version="1.0" encoding="utf-8"?>
<!-- Generator: Adobe Illustrator 22.0.1, SVG Export Plug-In . SVG Version: 6.00 Build 0)  -->
<svg version="1.1" id="Layer_1" xmlns="http://www.w3.org/2000/svg" xmlns:xlink="http://www.w3.org/1999/xlink" x="0px" y="0px"
	 width="64px" height="64px" viewBox="0 0 64 64" enable-background="new 0 0 64 64" xml:space="preserve">
<g>
	<g>
		<path fill="#FFFFFF" stroke="#FFA000" stroke-width="0.7805" stroke-linejoin="round" stroke-miterlimit="10" d="M19.9,39.7
			c0-1,0.3-1.9,0.7-2.6l-3.4-2.5c-1.6-1.2-3.8-1-5.1,0.4l7.9,6C20,40.6,19.9,40.2,19.9,39.7z"/>
	</g>
	<g>
		<path fill="#FFFFFF" stroke="#FFA000" stroke-width="0.7805" stroke-linejoin="round" stroke-miterlimit="10" d="M24.9,34.6
			L24.9,34.6c-1.7-1.2-3.9-1-5.2,0.4l1.6,1.2C22.2,35.3,23.5,34.7,24.9,34.6z"/>
	</g>
	<g>
		<path fill="#FFFFFF" stroke="#FFA000" stroke-width="0.7805" stroke-linejoin="round" stroke-miterlimit="10" d="M32.5,34.6
			L32.5,34.6c-1.5-1.2-3.5-1.1-4.8,0H32.5z"/>
	</g>
	
		<rect x="44.3" y="55.3" transform="matrix(0.7071 -0.7071 0.7071 0.7071 -24.197 54.2013)" fill="#FFFFFF" stroke="#FFA000" stroke-width="0.7805" stroke-linejoin="round" stroke-miterlimit="10" width="18" height="2.1"/>
	<path fill="#FFFFFF" stroke="#FFA000" stroke-width="0.7805" stroke-linejoin="round" stroke-miterlimit="10" d="M43.1,8.1H16.4
		V6.8c0-1.7,1.4-3,3-3H40c1.7,0,3,1.4,3,3V8.1z"/>
	<path fill="#FFFFFF" stroke="#FFA000" stroke-width="0.7805" stroke-linejoin="round" stroke-miterlimit="10" d="M39.1,7h-0.4
		c-0.5,0-0.9-0.4-0.9-0.9V1.5c0-0.5,0.4-0.9,0.9-0.9h0.4C39.6,0.6,40,1,40,1.5v4.6C40,6.6,39.6,7,39.1,7z"/>
	<path fill="#FFFFFF" stroke="#FFA000" stroke-width="0.7805" stroke-linejoin="round" stroke-miterlimit="10" d="M20.7,7h-0.4
		c-0.5,0-0.9-0.4-0.9-0.9V1.5c0-0.5,0.4-0.9,0.9-0.9h0.4c0.5,0,0.9,0.4,0.9,0.9v4.6C21.7,6.6,21.2,7,20.7,7z"/>
	<path fill="#FFFFFF" stroke="#FFA000" stroke-width="0.7805" stroke-linejoin="round" stroke-miterlimit="10" d="M41.9,9.4H17.6
		c-0.7,0-1.2,0.5-1.2,1.2v18.5c0,1.7,1.4,3,3,3H40c1.7,0,3-1.4,3-3V10.6C43.1,9.9,42.5,9.4,41.9,9.4z M38.7,18c0,0.1,0,0.2,0,0.3
		c-0.2,4.6-3.6,5.8-8.9,9.9c-5.3-4.1-8.7-5.3-8.9-9.9c0-0.1,0-0.2,0-0.3c0-2.6,2.1-4.8,4.8-4.8c1.8,0,3.3,1,4.1,2.4
		c0.8-1.4,2.4-2.4,4.1-2.4C36.5,13.2,38.7,15.4,38.7,18L38.7,18C38.7,18,38.7,18,38.7,18z"/>
	<path fill="#FFFFFF" stroke="#FFA000" stroke-width="0.7805" stroke-linejoin="round" stroke-miterlimit="10" d="M46.9,38.2
		c-1.6-1.6-3.8-2.5-6-2.5l-12.7,0h-3.1c-2.2,0-4,1.8-4,4v0c0,2.2,1.8,4,4,4h0.6v0l10.7,0l-1.1,1.1H23.4L9.8,34.6
		c-0.7-0.5-1.5-0.8-2.3-0.8c-1.2,0-2.3,0.5-3.1,1.5c-1.3,1.7-0.9,4.1,0.8,5.4l14.2,10.7c0.9,0.7,2.1,1.1,3.2,1.1l14.8,0
		c0.4,0,0.7,0.1,1,0.4l7.7,7.7L57.7,49L46.9,38.2z"/>
</g>
</svg>
