<svg xmlns="http://www.w3.org/2000/svg" width="64" height="64" viewBox="0 0 64 64"><path fill="#FFF" stroke="#FFA000" stroke-width=".78" stroke-linejoin="round" stroke-miterlimit="10" d="M19.9 39.7c0-1 .3-1.9.7-2.6l-3.4-2.5c-1.6-1.2-3.8-1-5.1.4l7.9 6c0-.4-.1-.8-.1-1.3zm5-5.1c-1.7-1.2-3.9-1-5.2.4l1.6 1.2c.9-.9 2.2-1.5 3.6-1.6zm7.6 0c-1.5-1.2-3.5-1.1-4.8 0h4.8zm13.73 27.38l12.728-12.728 1.485 1.485-12.728 12.727zM43.1 8.1H16.4V6.8c0-1.7 1.4-3 3-3H40c1.7 0 3 1.4 3 3v1.3z"/><path fill="#FFF" stroke="#FFA000" stroke-width=".78" stroke-linejoin="round" stroke-miterlimit="10" d="M39.1 7h-.4c-.5 0-.9-.4-.9-.9V1.5c0-.5.4-.9.9-.9h.4c.5 0 .9.4.9.9v4.6c0 .5-.4.9-.9.9zM20.7 7h-.4c-.5 0-.9-.4-.9-.9V1.5c0-.5.4-.9.9-.9h.4c.5 0 .9.4.9.9v4.6c.1.5-.4.9-.9.9zm21.2 2.4H17.6c-.7 0-1.2.5-1.2 1.2v18.5c0 1.7 1.4 3 3 3H40c1.7 0 3-1.4 3-3V10.6c.1-.7-.5-1.2-1.1-1.2zM38.7 18v.3c-.2 4.6-3.6 5.8-8.9 9.9-5.3-4.1-8.7-5.3-8.9-9.9V18c0-2.6 2.1-4.8 4.8-4.8 1.8 0 3.3 1 4.1 2.4.8-1.4 2.4-2.4 4.1-2.4 2.6 0 4.8 2.2 4.8 4.8zm8.2 20.2c-1.6-1.6-3.8-2.5-6-2.5H25.1c-2.2 0-4 1.8-4 4s1.8 4 4 4h11.3l-1.1 1.1H23.4L9.8 34.6c-.7-.5-1.5-.8-2.3-.8-1.2 0-2.3.5-3.1 1.5-1.3 1.7-.9 4.1.8 5.4l14.2 10.7c.9.7 2.1 1.1 3.2 1.1h14.8c.4 0 .7.1 1 .4l7.7 7.7L57.7 49 46.9 38.2z"/></svg>